<svg width="176" height="177" viewBox="0 0 176 177" fill="none" xmlns="http://www.w3.org/2000/svg">
<path d="M1.22779 38.2626C1.49678 16.8635 19.0622 -0.265825 40.4613 0.00316776L137.489 1.22283C158.888 1.49183 176.017 19.0573 175.748 40.4564L174.524 137.886C174.255 159.285 156.689 176.415 135.29 176.146L38.2625 174.926C16.8634 174.657 -0.265926 157.092 0.00306689 135.692L1.22779 38.2626Z" fill="#030303"/>
<path d="M47.4283 71.1127C47.3683 75.8852 43.4508 79.7055 38.6782 79.6455C33.9057 79.5855 30.0854 75.668 30.1454 70.8954C30.2054 66.1229 34.123 62.3026 38.8955 62.3626C43.668 62.4226 47.4883 66.3402 47.4283 71.1127Z" fill="#ABF43E"/>
<path d="M83.86 61.5543L75.089 63.0913L140.959 63.9193C143.812 63.9553 146.096 66.2973 146.06 69.1505L145.163 140.456C145.128 143.309 142.785 145.593 139.932 145.557L39.7076 144.297C36.8545 144.261 34.152 142.104 34.1878 139.251L34.4376 119.372C34.4736 116.519 37.2352 113.976 40.0883 114.012L116.866 114.977L116.868 114.79L117.404 114.797C123.199 114.87 127.957 110.231 128.029 104.435C128.102 98.6396 123.463 93.8823 117.668 93.8094L55.3587 93.0262C54.8497 93.0198 54.3488 93.0504 53.8584 93.1143L39.9369 92.9393C37.0837 92.9034 34.7998 90.5614 34.8357 87.7082L34.8756 84.5355C36.2366 84.9782 37.6866 85.2258 39.193 85.2448C47.2178 85.3456 53.8049 78.9221 53.9058 70.8972C54.0067 62.8724 47.5831 56.2853 39.5583 56.1844C38.152 56.1667 36.7899 56.3495 35.4991 56.7061L35.2435 55.2469C34.751 52.4363 36.6303 49.7584 39.4409 49.266L45.2411 48.2495L56.1833 62.5507L68.7658 62.7088L55.7913 46.4011L68.943 44.097L83.86 61.5543Z" fill="#ABF43E"/>
<path d="M107.488 57.4147L94.7481 59.6466L79.4555 42.2551L92.5707 39.9573L107.488 57.4147Z" fill="#ABF43E"/>
<path d="M131.082 53.2366L118.379 55.5065L103.086 38.1151L116.198 35.818L131.082 53.2366Z" fill="#ABF43E"/>
<path d="M138.169 31.9686C140.98 31.4762 143.658 33.3555 144.15 36.1661L145.779 45.4612C146.246 48.1311 144.574 50.6808 141.996 51.3514L126.717 33.975L138.169 31.9686Z" fill="#ABF43E"/>
<path d="M40.4555 0.503134L137.483 1.7228C158.606 1.98852 175.514 19.3277 175.248 40.4505L174.023 137.88C173.758 159.003 156.419 175.911 135.297 175.646L38.2692 174.426C17.1464 174.16 0.237725 156.822 0.503022 135.699L1.72774 38.2693C1.98912 17.4763 18.7946 0.767014 39.4681 0.503419L40.4555 0.503134ZM46.9279 71.1067C46.8713 75.6029 43.1809 79.2017 38.6847 79.1453C34.1883 79.0888 30.5887 75.3983 30.6451 70.902C30.7016 66.4056 34.3929 62.8059 38.8893 62.8624C43.3857 62.919 46.9845 66.6103 46.9279 71.1067ZM144.664 140.449C144.631 143.026 142.515 145.089 139.938 145.057L39.7139 143.797C37.06 143.764 34.6561 141.763 34.6876 139.257L34.9374 119.379C34.9534 118.112 35.5769 116.886 36.5487 115.973C37.5208 115.06 38.8039 114.495 40.082 114.511L117.359 115.483L117.361 115.296L117.398 115.297C123.469 115.373 128.453 110.513 128.529 104.442C128.605 98.37 123.746 93.3856 117.674 93.3092L55.3645 92.5259C54.845 92.5194 54.3337 92.5507 53.833 92.6141L39.9434 92.4395C37.3664 92.4071 35.3031 90.2913 35.3355 87.7142L35.367 85.2027C36.5852 85.5389 37.8649 85.7283 39.1867 85.7449C47.4876 85.8492 54.3012 79.2046 54.4057 70.9038C54.51 62.6028 47.8655 55.7891 39.5646 55.6848C38.3024 55.6689 37.074 55.8092 35.8981 56.0879L35.7359 55.161C35.2911 52.6225 36.9883 50.203 39.5268 49.758L45.0276 48.7939L55.7863 62.8541L55.9343 63.0474L69.813 63.2218L69.1573 62.3971L56.7066 46.7482L68.7477 44.6386L82.9106 61.2125L75.0029 62.5985L75.0832 63.5908L140.952 64.4188C143.529 64.4513 145.592 66.5671 145.56 69.1441L144.664 140.449ZM92.4845 39.4649L79.3697 41.7631L78.4917 41.9161L79.08 42.5857L94.3724 59.9765L94.5582 60.1879L94.8342 60.1396L107.574 57.907L108.438 57.7557L107.868 57.0903L92.9512 39.6329L92.7655 39.4157L92.4845 39.4649ZM106.538 57.0726L94.9381 59.1047L80.4179 42.5937L92.3749 40.4987L106.538 57.0726ZM116.112 35.326L103 37.6223L102.123 37.7763L102.711 38.4449L118.003 55.8367L118.189 56.0481L118.466 55.9988L131.171 53.7286L132.029 53.5753L131.462 52.9119L116.578 35.493L116.393 35.2758L116.112 35.326ZM130.135 52.8982L118.567 54.9639L104.049 38.4539L116.003 36.3598L130.135 52.8982ZM144.643 36.0802C144.102 32.9976 141.165 30.9358 138.083 31.4759L126.631 33.4825L125.753 33.6365L126.341 34.3051L141.62 51.6811L141.823 51.9132L142.122 51.8349C144.95 51.099 146.784 48.3032 146.271 45.3748L144.643 36.0802ZM138.256 32.4615C140.715 32.0307 143.062 33.6101 143.61 36.0174L143.658 36.2524L145.286 45.547C145.691 47.8565 144.322 50.066 142.16 50.7806L127.68 34.3131L138.256 32.4615ZM47.9279 71.1192C47.9913 66.0706 43.9505 61.926 38.9019 61.8625C33.8532 61.799 29.7086 65.8407 29.6451 70.8894C29.5818 75.938 33.6235 80.0818 38.6721 80.1452C43.7206 80.2086 47.8643 76.1677 47.9279 71.1192ZM146.56 69.1567C146.599 66.0274 144.094 63.4583 140.965 63.4189L80.4577 62.6583L83.9461 62.0468L84.8094 61.8956L84.2406 61.2292L69.3231 43.7717L69.1373 43.5555L68.8564 43.6047L55.7053 45.9084L54.8763 46.0542L55.4003 46.7122L67.7184 62.1954L56.4321 62.0535L45.6379 47.946L45.4534 47.7045L45.1549 47.7573L39.3545 48.7734C36.2719 49.3135 34.2112 52.2506 34.7512 55.3332L35.0063 56.7926L35.1021 57.3349L35.6323 57.1882C36.8782 56.844 38.1933 56.6676 39.552 56.6847C47.3007 56.7821 53.5032 63.1425 53.4058 70.8912C53.3082 78.6398 46.9479 84.8424 39.1993 84.745C37.7438 84.7267 36.3435 84.487 35.0298 84.0597L34.384 83.8504L34.3356 87.7017C34.2962 90.831 36.8015 93.4001 39.9309 93.4394L53.8878 93.6149L53.923 93.6104C54.3903 93.5496 54.8674 93.5198 55.3519 93.5258L117.661 94.3091C123.181 94.3786 127.599 98.9096 127.529 104.429C127.46 109.948 122.929 114.366 117.41 114.297L116.374 114.284L116.372 114.47L40.0946 113.511C38.5196 113.492 36.9955 114.182 35.8645 115.245C34.7333 116.307 33.9575 117.779 33.9375 119.366L33.6876 139.244C33.6488 142.345 36.4643 144.613 39.4153 144.787L39.7013 144.797L139.926 146.057C143.055 146.096 145.624 143.591 145.664 140.462L146.56 69.1567Z" stroke="#ABF43E"/>
</svg>
