<svg width="13" height="11" viewBox="0 0 13 11" fill="none" xmlns="http://www.w3.org/2000/svg">
<path d="M9.77778 0C10.4261 0 11.0478 0.257539 11.5063 0.715961C11.9647 1.17438 12.2222 1.79614 12.2222 2.44444V8.55556C12.2222 9.20386 11.9647 9.82562 11.5063 10.284C11.0478 10.7425 10.4261 11 9.77778 11H2.44444C1.79614 11 1.17438 10.7425 0.715961 10.284C0.257539 9.82562 0 9.20386 0 8.55556V2.44444C0 1.79614 0.257539 1.17438 0.715961 0.715961C1.17438 0.257539 1.79614 0 2.44444 0H9.77778ZM6.47044 2.68889C6.44202 2.61676 6.39255 2.55485 6.32846 2.51122C6.26438 2.46759 6.18864 2.44425 6.11111 2.44425C6.03358 2.44425 5.95785 2.46759 5.89376 2.51122C5.82967 2.55485 5.7802 2.61676 5.75178 2.68889L5.55806 3.15517C5.23361 3.94593 4.61807 4.58203 3.83839 4.93228L3.29083 5.17611C2.97733 5.31544 2.97733 5.77194 3.29083 5.91189L3.87139 6.16978C4.63135 6.51073 5.23596 7.12407 5.566 7.88883L5.75422 8.32089C5.78365 8.39127 5.83324 8.45138 5.89674 8.49366C5.96024 8.53593 6.03482 8.55849 6.11111 8.55849C6.1874 8.55849 6.26198 8.53593 6.32548 8.49366C6.38899 8.45138 6.43857 8.39127 6.468 8.32089L6.65622 7.88883C6.98626 7.12407 7.59088 6.51073 8.35083 6.16978L8.93139 5.91189C9.2455 5.77194 9.24489 5.31544 8.93139 5.17611L8.38383 4.93228C7.60392 4.58216 6.98815 3.94604 6.66356 3.15517L6.47044 2.68889Z" fill="#6A6967"/>
<path fill-rule="evenodd" clip-rule="evenodd" d="M6.32846 2.51122C6.39255 2.55485 6.44202 2.61676 6.47044 2.68889L6.66356 3.15517C6.98815 3.94604 7.60392 4.58216 8.38383 4.93228L8.93139 5.17611C9.24489 5.31544 9.2455 5.77194 8.93139 5.91189L8.35083 6.16978C7.59088 6.51073 6.98626 7.12407 6.65622 7.88883L6.468 8.32089C6.43857 8.39127 6.38899 8.45138 6.32548 8.49366C6.26198 8.53593 6.1874 8.55849 6.11111 8.55849C6.03482 8.55849 5.96024 8.53593 5.89674 8.49366C5.83324 8.45138 5.78365 8.39127 5.75422 8.32089L5.566 7.88883C5.23596 7.12407 4.63135 6.51073 3.87139 6.16978L3.29083 5.91189C2.97733 5.77194 2.97733 5.31544 3.29083 5.17611L3.83839 4.93228C4.61807 4.58203 5.23361 3.94593 5.55806 3.15517L5.75178 2.68889C5.7802 2.61676 5.82967 2.55485 5.89376 2.51122C5.95785 2.46759 6.03358 2.44425 6.11111 2.44425C6.18864 2.44425 6.26438 2.46759 6.32846 2.51122Z" fill="#ABF43E"/>
</svg>
