<svg width="10" height="10" viewBox="0 0 10 10" fill="none" xmlns="http://www.w3.org/2000/svg">
<path d="M8.37964 4.44068L8.95157 4.78374C8.98686 4.80487 9.01606 4.83477 9.03634 4.87055C9.05662 4.90632 9.06728 4.94674 9.06728 4.98787C9.06728 5.02899 9.05662 5.06941 9.03634 5.10519C9.01606 5.14096 8.98686 5.17087 8.95157 5.19199L4.53364 7.84227L0.115706 5.19199C0.0804227 5.17087 0.051217 5.14096 0.0309381 5.10519C0.0106593 5.06941 0 5.02899 0 4.98787C0 4.94674 0.0106593 4.90632 0.0309381 4.87055C0.051217 4.83477 0.0804227 4.80487 0.115706 4.78374L0.687635 4.44068L4.53364 6.74838L8.37964 4.44068ZM8.37964 6.67701L8.95157 7.02007C8.98686 7.04119 9.01606 7.0711 9.03634 7.10687C9.05662 7.14265 9.06728 7.18307 9.06728 7.22419C9.06728 7.26532 9.05662 7.30574 9.03634 7.34151C9.01606 7.37729 8.98686 7.40719 8.95157 7.42832L4.77868 9.93205C4.70468 9.97651 4.61997 10 4.53364 10C4.44731 10 4.3626 9.97651 4.28859 9.93205L0.115706 7.42832C0.0804227 7.40719 0.051217 7.37729 0.0309381 7.34151C0.0106593 7.30574 0 7.26532 0 7.22419C0 7.18307 0.0106593 7.14265 0.0309381 7.10687C0.051217 7.0711 0.0804227 7.04119 0.115706 7.02007L0.687635 6.67701L4.53364 8.9847L8.37964 6.67701ZM4.77821 0.0674751L8.95157 2.57121C8.98686 2.59233 9.01606 2.62224 9.03634 2.65801C9.05662 2.69379 9.06728 2.73421 9.06728 2.77533C9.06728 2.81646 9.05662 2.85688 9.03634 2.89265C9.01606 2.92843 8.98686 2.95833 8.95157 2.97946L4.53364 5.62974L0.115706 2.97993C0.0804227 2.95881 0.051217 2.9289 0.0309381 2.89313C0.0106593 2.85735 0 2.81693 0 2.77581C0 2.73469 0.0106593 2.69426 0.0309381 2.65849C0.051217 2.62271 0.0804227 2.59281 0.115706 2.57168L4.28859 0.0679509C4.3626 0.0234892 4.44731 0 4.53364 0C4.61997 0 4.70468 0.0234892 4.77868 0.0679509" fill="#73A32C"/>
</svg>
