<svg width="8" height="8" viewBox="0 0 8 8" fill="none" xmlns="http://www.w3.org/2000/svg">
<path d="M0 6.73684V2.94737C1.19098e-05 2.61237 0.133188 2.29115 0.370066 2.05428C0.606952 1.8174 0.928158 1.68421 1.26316 1.68421H1.68421C1.91674 1.68421 2.10524 1.87274 2.10526 2.10526C2.10526 2.3378 1.91675 2.52632 1.68421 2.52632H1.26316C1.1515 2.52632 1.04442 2.57072 0.965461 2.64967C0.886509 2.72862 0.842117 2.83571 0.842105 2.94737V6.73684C0.842105 6.8485 0.886512 6.95558 0.965461 7.03454C1.04442 7.1135 1.15149 7.15789 1.26316 7.15789H5.05263C5.1643 7.15789 5.27137 7.1135 5.35033 7.03454C5.42928 6.95558 5.47368 6.8485 5.47368 6.73684V6.31579C5.47371 6.08327 5.66221 5.89474 5.89474 5.89474C6.12726 5.89474 6.31577 6.08327 6.31579 6.31579V6.73684C6.31579 7.07184 6.1826 7.39305 5.94572 7.62993C5.70884 7.86682 5.38764 8 5.05263 8H1.26316C0.928147 8 0.606954 7.86682 0.370066 7.62993C0.133192 7.39305 0 7.07184 0 6.73684ZM7.15789 1.30551C7.15789 1.18266 7.10907 1.06466 7.0222 0.977796C6.93538 0.890982 6.81768 0.842149 6.6949 0.842105C6.57205 0.842105 6.45406 0.890928 6.36719 0.977796L6.36678 0.978207L6.07484 1.26891L6.73067 1.92475L7.0222 1.63281C7.10902 1.54599 7.15784 1.42829 7.15789 1.30551ZM2.94737 4.38528V5.05263H3.61472L6.13651 2.52138L5.47821 1.86308L2.94737 4.38528ZM8 1.30551C7.99995 1.65134 7.86238 1.9827 7.61801 2.22738L7.08388 2.76357C7.06939 2.78472 7.05333 2.80522 7.03454 2.82401C7.01654 2.84201 6.99674 2.85724 6.97656 2.8713L4.08758 5.77097C4.00859 5.8502 3.90136 5.89474 3.78947 5.89474H2.52632C2.29377 5.89474 2.10526 5.70623 2.10526 5.47368V4.21053C2.10528 4.09866 2.14981 3.9914 2.22903 3.91242L5.12706 1.02426C5.14133 1.0036 5.1576 0.98385 5.17599 0.965461C5.19483 0.94662 5.21521 0.93023 5.23643 0.915707L5.7722 0.38199C6.01696 0.137443 6.3489 -4.46511e-09 6.6949 0C7.04102 4.35948e-05 7.37285 0.137661 7.6176 0.382401C7.86239 0.627194 8 0.959321 8 1.30551Z" fill="#73A32C"/>
</svg>
