<svg width="8" height="8" viewBox="0 0 8 8" fill="none" xmlns="http://www.w3.org/2000/svg">
<path d="M6.85657 0C6.95307 0.00179472 7.049 0.0152251 7.14229 0.04C6.91693 0.0981155 6.71491 0.224144 6.56362 0.400989C6.41233 0.577834 6.3191 0.796935 6.29657 1.02857C6.29143 1.08143 6.28829 1.10114 6.28686 1.11143L6.28571 1.12029V7.14286C6.28571 7.616 5.90114 8 5.42857 8C4.956 8 4.57143 7.61543 4.57143 7.14286V6.28571C4.57143 6.13416 4.51122 5.98882 4.40406 5.88165C4.2969 5.77449 4.15155 5.71429 4 5.71429H1.14286V1.42857C1.14286 1.04969 1.29337 0.686328 1.56128 0.418419C1.82919 0.15051 2.19255 0 2.57143 0H6.85657ZM4 6.28571V7.14286C4 7.46571 4.112 7.76057 4.29314 8H4.15886C3.44171 8 3.28286 7.99943 2.808 8H2.6C1.84229 8.00114 1.41714 8.00343 1.17143 8H1.14286C0.511429 8 0 7.48857 0 6.85714V6.57143C0 6.49565 0.0301019 6.42298 0.0836838 6.3694C0.137266 6.31582 0.209938 6.28571 0.285714 6.28571H4ZM7.42857 0.571429C7.32571 0.571429 7.22857 0.6 7.14286 0.651429C6.97143 0.748572 6.85714 0.931429 6.85714 1.14286V2.28571H7.42857C7.74286 2.28571 8 2.02857 8 1.71429V1.14286C8 0.828571 7.74286 0.571429 7.42857 0.571429Z" fill="#73A32C"/>
</svg>
