<svg width="10" height="8" viewBox="0 0 10 8" fill="none" xmlns="http://www.w3.org/2000/svg">
<path d="M8.95627 1.91094C8.85235 2.01526 8.72882 2.098 8.59278 2.15437C8.45675 2.21075 8.31091 2.23965 8.16367 2.23942C8.08746 2.23929 8.01146 2.23151 7.93681 2.21622L6.7137 4.48759C6.86063 4.63448 6.96381 4.81934 7.01172 5.0215C7.05964 5.22366 7.05039 5.43517 6.98501 5.63237C6.91963 5.82958 6.8007 6.00472 6.64151 6.13823C6.48232 6.27173 6.28914 6.35834 6.08356 6.38837C5.87798 6.4184 5.6681 6.39067 5.47737 6.30828C5.28664 6.22589 5.12259 6.09208 5.00353 5.92181C4.88448 5.75155 4.81511 5.55153 4.8032 5.34411C4.79128 5.13669 4.83728 4.93004 4.93605 4.74726L3.89339 3.70459C3.73027 3.79276 3.54787 3.83922 3.36245 3.83983C3.28625 3.83972 3.21024 3.83195 3.13559 3.81662L1.91248 6.0876C2.06915 6.24428 2.17583 6.44389 2.21905 6.6612C2.26227 6.87851 2.24007 7.10376 2.15528 7.30846C2.07048 7.51315 1.9269 7.68811 1.74267 7.81121C1.55844 7.9343 1.34185 8 1.12028 8C0.898718 8 0.682127 7.9343 0.4979 7.81121C0.313673 7.68811 0.170083 7.51315 0.0852879 7.30846C0.000492984 7.10376 -0.021699 6.87851 0.0215181 6.6612C0.0647352 6.44389 0.17142 6.24428 0.328084 6.0876C0.459416 5.95638 0.621298 5.85986 0.799176 5.80672C0.977055 5.75357 1.16535 5.74546 1.34714 5.78312L2.57025 3.51175C2.3605 3.30137 2.24271 3.01642 2.24271 2.71935C2.24271 2.42227 2.3605 2.13732 2.57025 1.92694C2.76052 1.73656 3.01298 1.62104 3.28143 1.60153C3.54989 1.58201 3.8164 1.65981 4.0322 1.82068C4.248 1.98154 4.39867 2.21473 4.45664 2.47758C4.51461 2.74043 4.47601 3.01536 4.3479 3.25208L5.39056 4.29474C5.62309 4.16969 5.89221 4.13045 6.15076 4.18392L7.37387 1.91254C7.26983 1.80851 7.1873 1.68501 7.13099 1.54908C7.07468 1.41315 7.0457 1.26747 7.0457 1.12034C7.0457 0.973213 7.07468 0.827527 7.13099 0.6916C7.1873 0.555674 7.26983 0.43217 7.37387 0.32814C7.58397 0.118035 7.86893 0 8.16607 0C8.4632 0 8.74816 0.118035 8.95827 0.32814C9.16837 0.538245 9.28641 0.823208 9.28641 1.12034C9.28641 1.41747 9.16837 1.70244 8.95827 1.91254L8.95627 1.91094Z" fill="#73A32C"/>
</svg>
