<svg width="7" height="7" viewBox="0 0 7 7" fill="none" xmlns="http://www.w3.org/2000/svg">
<path d="M3.5 7C3.04037 7 2.58525 6.90947 2.16061 6.73358C1.73597 6.55769 1.35013 6.29988 1.02513 5.97487C0.368749 5.3185 0 4.42826 0 3.5C0 2.57174 0.368749 1.6815 1.02513 1.02513C1.6815 0.368749 2.57174 0 3.5 0C5.425 0 7 1.4 7 3.15C7 3.70695 6.77875 4.2411 6.38492 4.63492C5.9911 5.02875 5.45695 5.25 4.9 5.25H4.27C4.165 5.25 4.095 5.32 4.095 5.425C4.095 5.46 4.13 5.495 4.13 5.53C4.27 5.705 4.34 5.915 4.34 6.125C4.375 6.615 3.99 7 3.5 7ZM3.5 0.7C2.75739 0.7 2.0452 0.994999 1.5201 1.5201C0.994999 2.0452 0.7 2.75739 0.7 3.5C0.7 4.24261 0.994999 4.9548 1.5201 5.4799C2.0452 6.005 2.75739 6.3 3.5 6.3C3.605 6.3 3.675 6.23 3.675 6.125C3.675 6.055 3.64 6.02 3.64 5.985C3.5 5.81 3.43 5.635 3.43 5.425C3.43 4.935 3.815 4.55 4.305 4.55H4.9C5.2713 4.55 5.6274 4.4025 5.88995 4.13995C6.1525 3.8774 6.3 3.5213 6.3 3.15C6.3 1.785 5.04 0.7 3.5 0.7ZM1.575 2.8C1.855 2.8 2.1 3.045 2.1 3.325C2.1 3.605 1.855 3.85 1.575 3.85C1.295 3.85 1.05 3.605 1.05 3.325C1.05 3.045 1.295 2.8 1.575 2.8ZM2.625 1.4C2.905 1.4 3.15 1.645 3.15 1.925C3.15 2.205 2.905 2.45 2.625 2.45C2.345 2.45 2.1 2.205 2.1 1.925C2.1 1.645 2.345 1.4 2.625 1.4ZM4.375 1.4C4.655 1.4 4.9 1.645 4.9 1.925C4.9 2.205 4.655 2.45 4.375 2.45C4.095 2.45 3.85 2.205 3.85 1.925C3.85 1.645 4.095 1.4 4.375 1.4ZM5.425 2.8C5.705 2.8 5.95 3.045 5.95 3.325C5.95 3.605 5.705 3.85 5.425 3.85C5.145 3.85 4.9 3.605 4.9 3.325C4.9 3.045 5.145 2.8 5.425 2.8Z" fill="#73A32C"/>
</svg>
